<?xml version="1.0" encoding="UTF-8"?>
<!DOCTYPE svg PUBLIC "-//W3C//DTD SVG 1.1//EN" "http://www.w3.org/Graphics/SVG/1.1/DTD/svg11.dtd">
<!-- Creator: CorelDRAW 2017 -->
<svg xmlns="http://www.w3.org/2000/svg" xml:space="preserve" width="210mm" height="297mm" version="1.1" style="shape-rendering:geometricPrecision; text-rendering:geometricPrecision; image-rendering:optimizeQuality; fill-rule:evenodd; clip-rule:evenodd"
viewBox="0 0 21000 29700"
 xmlns:xlink="http://www.w3.org/1999/xlink">
 <defs>
  <style type="text/css">
   <![CDATA[
    .fil8 {fill:none}
    .fil5 {fill:#1A1A1A}
    .fil7 {fill:gray}
    .fil1 {fill:#999999}
    .fil2 {fill:#B3B3B3}
    .fil0 {fill:#BDBDBD}
    .fil4 {fill:#FFB700}
    .fil3 {fill:#FFE500}
    .fil6 {fill:white}
   ]]>
  </style>
 </defs>
 <g id="Слой_x0020_1">
  <metadata id="CorelCorpID_0Corel-Layer"/>
  <g id="_2404123700624">
   <path class="fil0" d="M9222.84 6309.78l-692.33 -119.11 189.62 714.38 -582.26 955.64 -211.5 142.38 -771.7 467.43 -635 836.55 -343.96 909.71 -26.46 784.93 17.64 1009.83 405.7 361.6 104.34 -68.81 -38.18 -288.32c-73.11,-552.09 275.75,-1072.4 814.25,-1214.41l341.1 147.25 449.79 -8.82 -57.95 -204.8 225.52 81.33c266.3,96.03 447.28,344.53 456.99,627.45l116.28 -239.39 -66.16 -469.39 379.24 -306.74 273.4 -410.11 -4.41 -635 74.97 110.24c284.71,418.65 484.53,889.09 588.15,1384.66 103.62,-495.57 303.44,-966.01 588.15,-1384.66l74.97 -110.24 -4.41 635 273.4 410.11 379.24 306.74 -66.16 469.39 116.28 239.39c9.71,-282.92 190.69,-531.42 456.99,-627.45l225.52 -81.33 -57.95 204.8 449.79 8.82 341.1 -147.25c538.5,142.01 887.36,662.32 814.25,1214.41l-38.18 288.32 104.34 68.81 405.7 -361.6 17.64 -1009.83 -26.46 -784.93 -343.96 -909.71 -635 -836.55 -771.7 -467.43 -211.5 -142.38 -582.26 -955.64 189.62 -714.38 -692.33 119.11 -291.04 119.06 -716.04 61.74 -716.04 -61.74 -291.04 -119.06zm-2400.26 2056.52c-11.86,-362.97 -10.99,-713.36 105.71,-1080.37 46.13,-3.54 147.71,41.71 198.44,114.65l-26.46 -97.02c-37.65,-138.05 -87.84,-272.37 -149.93,-401.29 -71.13,-147.69 -71.13,-319.73 0,-467.42 20.78,-43.15 37.04,-88.33 48.51,-134.82l246.78 365.1c39.21,58.01 88.56,108.47 145.69,148.96l-13.23 -83.79c-12.74,-80.66 -9.74,-163.01 8.82,-242.53l35.27 79.37c18.55,41.75 29.03,86.64 30.87,132.29l26.46 -52.91c81.55,-163.08 125.26,-342.45 127.88,-524.76l141.11 178.27c227.61,287.55 404.27,611.97 522.31,959.18l55.37 -290.78 -661.07 -1318.51 -384.2 -326.32 -176.23 0 -493.89 317.5 -176.39 1688.92 388.18 1036.28zm6814.68 0c11.86,-362.97 10.99,-713.36 -105.71,-1080.37 -46.13,-3.54 -147.71,41.71 -198.44,114.65l26.46 -97.02c37.65,-138.05 87.84,-272.37 149.93,-401.29 71.13,-147.69 71.13,-319.73 0,-467.42 -20.78,-43.15 -37.04,-88.33 -48.51,-134.82l-246.78 365.1c-39.21,58.01 -88.56,108.47 -145.69,148.96l13.23 -83.79c12.74,-80.66 9.74,-163.01 -8.82,-242.53l-35.27 79.37c-18.55,41.75 -29.03,86.64 -30.87,132.29l-26.46 -52.91c-81.55,-163.08 -125.26,-342.45 -127.88,-524.76l-141.11 178.27c-227.61,287.55 -404.27,611.97 -522.31,959.18l-55.37 -290.78 661.07 -1318.51 384.2 -326.32 176.23 0 493.89 317.5 176.39 1688.92 -388.18 1036.28zm-1761.75 5623.87c58.3,212.59 102.62,454.35 -69.92,674.31l-150.6 422.41 -573.26 515.94 351.05 -110.73 -90.88 137.18c-40.08,60.5 -72.66,125.66 -97.01,194.03 -36.27,101.84 -101.13,191.07 -186.82,256.99 -160.69,155.48 -301.24,346.12 -392.08,542.06l-60.51 228.42 1225.9 -1058.34 496.79 -1127.97 -254.25 -769.27 -198.41 94.97zm-3291.17 0c-58.3,212.59 -102.62,454.35 69.92,674.31l150.6 422.41 573.26 515.94 -351.05 -110.73 90.88 137.18c40.08,60.5 72.66,125.66 97.01,194.03 36.27,101.84 101.13,191.07 186.82,256.99 160.69,155.48 301.24,346.12 392.08,542.06l60.51 228.42 -1225.9 -1058.34 -496.79 -1127.97 254.25 -769.27 198.41 94.97zm-807.23 -2691.34l155.9 75.75c205.25,99.73 414.12,191.82 626.18,276.08 84.3,33.49 149.06,103.12 176.39,189.61l44.1 -22.04c100.41,-50.18 191.41,-117.31 268.99,-198.44l-39.69 132.29c-60.91,203.01 -57.83,419.84 8.82,621.04 41.2,124.38 44.27,258.24 8.82,384.38 -52.97,188.48 8.07,390.57 156.52,518.21 148.44,127.65 357.4,157.71 535.81,77.1l506.48 -22.05 506.48 22.05c178.41,80.61 387.37,50.55 535.81,-77.1 148.45,-127.64 209.49,-329.73 156.52,-518.21 -35.45,-126.14 -32.38,-260 8.82,-384.38 66.65,-201.2 69.73,-418.03 8.82,-621.04l-39.69 -132.29c77.58,81.13 168.58,148.26 268.99,198.44l44.1 22.04c27.33,-86.49 92.09,-156.12 176.39,-189.61 212.06,-84.26 420.93,-176.35 626.18,-276.08l155.9 -75.75 29.31 75.75 -679.1 456.88 -48.42 146.23 178.7 16.86 557.8 709.97 262.41 820.21 13.22 52.91 -55.38 315.91c-68.06,-481.15 -378.57,-893.58 -822.15,-1092.02l-224.63 -100.49 -60.64 -46.06 132.95 980.05 -864.31 260.17 -868.08 -44.09 -868.08 44.09 -864.31 -260.17 131.92 -972.44 -50.63 38.45 -224.63 100.49c-443.58,198.44 -754.09,610.87 -822.15,1092.02l-55.38 -315.91 13.22 -52.91 262.41 -820.21 557.8 -709.97 169.99 -16.04 -48.69 -147.05 -679.1 -456.88 29.31 -75.75z"/>
   <path class="fil1" d="M8232.21 7544.61l23.53 -130.81c35.79,-198.98 8.02,-404.19 -79.37,-586.5 -231.97,-483.93 -509.57,-944.62 -829.03,-1375.83l44.1 141.11c81.48,260.71 108.49,535.39 79.37,806.98l-30.87 -208.89c-36.09,-244.22 -120.01,-478.94 -246.94,-690.7l-8.82 136.71c-15.71,243.56 9.62,488.03 74.96,723.19l-57.32 -59.84c-165.56,-172.84 -278.72,-389.1 -326.32,-623.66l-70.56 220.48c-131.19,409.94 -79.79,856.5 141.11,1225.91l-66.14 -44.1 -17.64 -13.23c-68.24,-51.18 -121.53,-119.7 -154.34,-198.44l-4.41 158.75c-12.5,449.96 27.46,899.85 119.06,1340.56l52.92 -26.46c204.21,-102.11 415.6,-189.18 632.48,-260.52l-42.63 203 -722.14 577.87 -251.36 -180.8 -202.85 -1459.62 467.44 -2028.47 511.52 -246.95 732.02 824.62 657.05 1080.38 -229.31 595.32 -195.51 99.94zm3995.42 0l-23.53 -130.81c-35.79,-198.98 -8.02,-404.19 79.37,-586.5 231.97,-483.93 509.57,-944.62 829.03,-1375.83l-44.1 141.11c-81.48,260.71 -108.49,535.39 -79.37,806.98l30.87 -208.89c36.09,-244.23 120.01,-478.94 246.94,-690.69l8.82 136.7c15.71,243.56 -9.62,488.03 -74.96,723.19l57.32 -59.84c165.56,-172.84 278.72,-389.1 326.32,-623.66l70.56 220.48c131.19,409.94 79.79,856.5 -141.11,1225.91l66.14 -44.1 17.64 -13.23c68.24,-51.18 121.53,-119.7 154.34,-198.44l4.41 158.75c12.5,449.96 -27.46,899.85 -119.06,1340.56l-52.92 -26.46c-204.21,-102.11 -415.6,-189.18 -632.48,-260.52l42.63 203 722.14 577.87 251.36 -180.8 202.85 -1459.62 -467.44 -2028.47 -511.52 -246.95 -732.02 824.62 -657.05 1080.38 229.31 595.32 195.51 99.94z"/>
   <path class="fil2" d="M9488.39 14015.52l67.37 56.06c186.59,155.27 428.44,227.73 669.67,200.64 241.23,27.09 483.08,-45.37 669.67,-200.64l67.37 -56.06 -1.22 362.54 -11.03 22.05 -724.79 233.71 -724.79 -233.71 -11.03 -22.05 -1.22 -362.54z"/>
   <path class="fil1" d="M7633.2 10263.81l49.15 -203 118.4 163.3c218.76,301.72 572.63,450.12 944.62,427.44l362.82 -69.71 161 -340.09c159.47,-336.86 118.7,-734.4 -105.83,-1031.88 -204.62,-271.1 -318.78,-599.7 -326.32,-939.27l388.05 -352.78 160.33 -96.96 -32.44 105.78c-50.83,165.76 -4.9,346.02 119.06,467.24 309.74,302.89 543.77,673.03 684.81,1080.34 -21,-115.92 -32.32,-238.99 -32.32,-366.52 0,-230.02 36.78,-445.52 100.91,-630.77 64.12,185.25 100.9,400.75 100.9,630.77 0,127.51 -11.31,250.55 -32.31,366.46 141.04,-407.29 375.07,-777.4 684.79,-1080.28 123.96,-121.22 169.89,-301.48 119.06,-467.24l-32.44 -105.78 160.33 96.96 388.05 352.78c-7.54,339.57 -121.7,668.17 -326.32,939.27 -224.53,297.48 -265.3,695.02 -105.83,1031.88l161 340.09 362.82 69.71c371.99,22.68 725.86,-125.72 944.62,-427.44l118.4 -163.3 49.15 203c166.12,208.12 458.03,266.27 691.22,137.69 233.19,-128.58 339.8,-406.47 252.46,-658.03l-110.24 -317.5 0 220.83 -104.14 326.8c-6.21,-294.05 -55.82,-585.57 -147.22,-865.13l-74.97 -229.31 25.92 112.08 -109.07 262.71c-115.37,-481.11 -443.43,-883.57 -891.4,-1093.57l-141.11 -66.15c-335,-473.59 -805.37,-834.83 -1349.36,-1036.29l-238.13 -88.19c336.43,-52.28 639.72,-232.36 846.67,-502.71l113.89 -148.78 -297.47 -18.23 -1059.28 144.93 -1059.28 -144.93 -297.47 18.23 113.89 148.78c206.95,270.35 510.24,450.43 846.67,502.71l-238.13 88.19c-543.99,201.46 -1014.36,562.7 -1349.36,1036.29l-141.11 66.15c-447.97,210 -776.03,612.46 -891.4,1093.57l-109.07 -262.71 25.92 -112.08 -74.97 229.31c-91.4,279.56 -141.01,571.08 -147.22,865.13l-104.14 -326.8 0 -220.83 -110.24 317.5c-87.34,251.56 19.27,529.45 252.46,658.03 233.19,128.58 525.1,70.43 691.22,-137.69z"/>
   <path class="fil3" d="M8677.61 9646.8c139.13,0 251.91,112.78 251.91,251.91 0,139.13 -112.78,251.91 -251.91,251.91 -139.13,0 -251.91,-112.78 -251.91,-251.91 0,-139.13 112.78,-251.91 251.91,-251.91zm3095.64 0c139.13,0 251.91,112.78 251.91,251.91 0,139.13 -112.78,251.91 -251.91,251.91 -139.13,0 -251.91,-112.78 -251.91,-251.91 0,-139.13 112.78,-251.91 251.91,-251.91z"/>
   <path class="fil4" d="M8677.61 9646.8c139.13,0 251.91,112.78 251.91,251.91 0,16.71 -1.65,33.03 -4.75,48.83 -131.91,-118.96 -315.75,-164.6 -488.89,-119.86 30.66,-104.54 127.27,-180.88 241.73,-180.88zm3095.64 0c-139.13,0 -251.91,112.78 -251.91,251.91 0,16.71 1.65,33.03 4.75,48.83 131.91,-118.96 315.75,-164.6 488.89,-119.86 -30.66,-104.54 -127.27,-180.88 -241.73,-180.88z"/>
   <path class="fil5" d="M8194.92 9799.82c-34.68,32.21 -79.71,50.98 -127,52.92l47.63 15.88c45.44,15.15 92.51,24.92 140.23,29.1l47.62 66.15c153.91,213.8 436.84,290.05 677.34,182.56 46.36,67.75 42.67,174.83 10.58,264.59l52.92 -68.8c95.15,-123.7 103.59,-293.45 21.17,-425.98 -11.52,-18.52 -24.02,-36.25 -37.43,-53.14l15.04 7.4c77.91,38.33 139.22,103.7 172.47,183.91l-5.29 -31.75c-11.06,-66.39 -40.27,-127.36 -83.18,-176.87 62.24,11.55 126.94,17.42 192.74,16.89 -366.65,-201.87 -705.72,-605.04 -523.27,-1021.29 -299.23,266.44 -305.21,534.13 -158.28,728.59 -112.73,-49.09 -199.71,-144.61 -237.48,-263.03l5.29 52.92c12.37,123.75 86.56,231.68 195.25,288.16 -149.41,-5.02 -295.71,49.02 -406.35,151.79zm2811.43 4845.8c-244.72,99.76 -499.18,335.43 -444.56,647.02 39.54,-233.24 174.59,-446.5 444.56,-647.02zm-1552.86 0c244.72,99.76 499.19,335.43 444.57,647.02 -39.54,-233.23 -174.6,-446.5 -444.57,-647.02zm3366.12 -3679.32c-57.67,120.82 -156.09,217.72 -278.26,273.39l39.69 -5.29c93.59,-12.47 180.09,-51.81 250.04,-111.5 -76.94,118.22 -176.55,219.84 -335.98,309.51 -422.56,237.65 -738.86,450.4 -791.31,991.72 -50.29,-141.02 -76.89,-300.38 -79.18,-478.25 -24.48,255.31 -15.45,484.09 31.75,739.03 64.56,348.7 -69.65,704.43 -348.46,923.58 -278.8,219.15 -656.16,265.55 -979.75,120.46l0 -237.79c129.74,66.06 288.35,45.44 397.09,-54.49 71.91,-66.09 132.79,-142.34 181.03,-225.82 -52.35,22.55 -112.02,25.06 -167.13,5.53 -27.4,-9.71 -57.94,-2.46 -78.05,18.52 -46.49,48.5 -123.41,50.34 -172.17,4.13 -48.76,-46.21 -51.04,-123.12 -5.11,-172.14 38.38,-40.97 95.14,-59.31 150.24,-48.56 55.1,10.75 100.79,49.09 120.96,101.48 4.78,12.41 14.3,22.4 26.46,27.78 49.32,21.82 103.59,24.67 153.27,10.19 39.48,-79.47 67.96,-164.53 84.19,-252.93 21.48,-117.02 -5.16,-237.76 -73.89,-334.87 -68.73,-97.12 -173.73,-162.4 -291.23,-181.07 -121.99,-19.38 -246.4,-17.59 -367.78,5.3l-56.11 10.58 -56.11 -10.58c-121.38,-22.89 -245.79,-24.68 -367.78,-5.3 -117.5,18.67 -222.5,83.95 -291.23,181.07 -68.73,97.11 -95.37,217.85 -73.89,334.87 16.23,88.4 44.71,173.46 84.19,252.93 49.68,14.48 103.95,11.63 153.27,-10.19 12.16,-5.38 21.68,-15.37 26.46,-27.78 20.17,-52.39 65.86,-90.73 120.96,-101.48 55.1,-10.75 111.86,7.59 150.24,48.56 45.93,49.02 43.65,125.93 -5.11,172.14 -48.76,46.21 -125.68,44.37 -172.17,-4.13 -20.11,-20.98 -50.65,-28.23 -78.05,-18.52 -55.11,19.53 -114.78,17.02 -167.13,-5.53 48.24,83.48 109.12,159.73 181.03,225.82 108.74,99.93 267.35,120.55 397.09,54.49l0 237.79c-323.59,145.09 -700.95,98.69 -979.75,-120.46 -278.81,-219.15 -413.02,-574.88 -348.46,-923.58 47.2,-254.94 56.23,-483.72 31.75,-739.03 -2.29,177.87 -28.89,337.23 -79.18,478.25 -52.45,-541.32 -368.75,-754.07 -791.31,-991.72 -159.44,-89.68 -259.05,-191.3 -335.99,-309.53 69.95,59.7 156.46,99.05 250.06,111.52l39.69 5.29c-122.17,-55.67 -220.59,-152.57 -278.25,-273.38 181.41,115.92 407.13,159.73 629.73,106.78 147.73,101.83 266.06,223.81 331.23,409.93 30.25,-311.31 -135.02,-608.93 -415.27,-747.81 -438.6,-217.35 -503.57,-557.53 -547.82,-987.86 -85.84,430.32 -225.07,851.53 283.05,1124.52l42.69 22.89c-150.55,-19.04 -296.37,-67.58 -428.94,-143.36 -85.29,-48.75 -156.76,-118.41 -207.7,-202.41l-39.69 -60.85 23.81 66.14c33.33,92.57 81.8,175.63 141.66,247.3 66.1,298.75 131.65,595.23 425.9,763.12 142.46,81.3 275.59,181.2 386.9,296.58 -221.02,83.56 -408.46,239.4 -530.9,443.47l-39.69 66.15c138.67,-177.31 326.48,-308.93 539.09,-379.01 -296.73,284.03 -515.2,594.65 -663.45,926.42l-0.25 0.01c-297.53,16.85 -578.65,135.11 -797.84,332.61 50.14,-153.78 140.57,-292.58 263.3,-401.15l68.79 -60.85c-156.79,55.92 -291.53,157.1 -388.59,288.54 36.45,-140.83 95.93,-274.69 176,-396.11 439.19,41.97 775.02,-298.96 689.09,-754.32 -79.36,302.78 -374.09,497.73 -683.83,453.49 -76.96,-11 -151.92,-36.62 -220.59,-76.22 -327.82,-416.49 -301.93,-1013.77 66.96,-1400.39l30.58 -32.05c-356.24,235.21 -522.96,657.45 -444.79,1058.88 -108.54,-219.73 -110.59,-466.65 -51.46,-700.51 3.62,-12.45 7,-25.02 10.15,-37.7 46.54,-164.9 122.63,-322.15 212.06,-457.33 -67.82,36.07 -128.93,76.45 -183.67,120.3 -1.57,-24.02 -3.8,-48.29 -6.83,-72.84 -79.78,-646.67 139.41,-1052.6 422.64,-1570.26 -24.92,207.37 8.67,419.96 100.49,612.57l70.84 148.62c-88.11,-395.63 -29.13,-809.8 165.9,-1165.1l7.02 -12.79c5.48,168.11 42.49,320.57 132.42,458.24 -51.78,-236.21 -29.47,-482.36 63.44,-705.01 236.79,-207.93 496.34,-381.31 730.6,-534.79 -12.11,-9.27 -24.06,-18.53 -35.89,-27.8l1.41 -27.33c9.08,-176.48 52.84,-342.18 127.25,-481.84 -296.63,173.71 -456.73,5.31 -584.81,-402.33l10.91 89.43c30.93,253.71 128.43,492.16 272.36,676.62 -256.75,-235.03 -422.17,-493.37 -474.21,-888.32 -45.59,-346.03 -238.53,-655.47 -529.17,-848.72l100.54 127c162.36,205.09 248.5,460.18 243.71,721.72 -6.2,338.68 154.77,719.42 386.14,981.98l-64.8 -27.22 -10.59 -5.29c-184.94,-92.38 -327.1,-252.55 -396.87,-447.15l34.39 142.88c53.52,222.37 213.59,401.69 424.33,481.54 -295.36,172.24 -571.56,389.59 -783.84,644.08 -158.29,-535.98 -229.64,-1068.23 -205.81,-1641.6 26.51,-637.89 174.59,-1271.01 442.65,-1862.11 70.01,-154.33 274.39,-180.86 377.17,-44.08 219.17,291.71 466.91,562.55 665.13,868.86 144.67,223.55 239.36,427.41 378.9,615.19 133.08,179.06 136.69,412.65 9.21,595.74 -131.33,188.63 -224.46,418.44 -253.52,605.29 398.09,-416.18 757.33,-690.1 1322.92,-857.25 -304.74,-103.61 -547.56,-159.28 -719.67,-470.96 -44.21,-80.06 -3.08,-175.36 75.18,-204.98 17.32,-2.78 34.77,-5.85 52.38,-9.24 288.01,206.28 635.29,308.72 989.35,289.09l371.89 -20.63 371.89 20.63c354.06,19.63 701.34,-82.81 989.35,-289.09 17.61,3.39 35.06,6.46 52.38,9.24 78.26,29.62 119.39,124.92 75.18,204.98 -172.11,311.68 -414.93,367.35 -719.67,470.96 565.59,167.15 924.83,441.07 1322.92,857.25 -29.06,-186.85 -122.19,-416.66 -253.52,-605.29 -127.48,-183.09 -123.87,-416.68 9.21,-595.74 139.54,-187.78 234.23,-391.64 378.9,-615.19 198.22,-306.31 445.96,-577.15 665.13,-868.86 102.78,-136.78 307.16,-110.25 377.17,44.08 268.06,591.1 416.14,1224.22 442.65,1862.11 23.83,573.37 -47.52,1105.62 -205.81,1641.6 -212.27,-254.49 -488.49,-471.84 -783.84,-644.08 210.73,-79.85 370.82,-259.17 424.34,-481.54l34.39 -142.88c-69.77,194.6 -211.93,354.77 -396.87,447.15l-10.59 5.29 -64.82 27.23c231.37,-262.56 392.35,-643.31 386.15,-981.99 -4.79,-261.54 81.35,-516.63 243.71,-721.72l100.54 -127c-290.64,193.25 -483.58,502.69 -529.17,848.72 -52.04,394.96 -217.48,653.3 -474.24,888.34 143.95,-184.47 241.47,-422.91 272.4,-676.64l10.9 -89.43c-128.07,407.64 -288.17,576.04 -584.8,402.33 74.41,139.66 118.17,305.36 127.25,481.84l1.41 27.33c-11.83,9.26 -23.79,18.53 -35.9,27.8 234.26,153.49 493.81,326.87 730.6,534.79 92.91,222.66 115.22,468.8 63.44,705.01 89.93,-137.67 126.94,-290.15 132.42,-458.26l7.03 12.81c195.03,355.3 254.01,769.47 165.9,1165.1l70.84 -148.62c91.82,-192.61 125.41,-405.18 100.49,-612.55 283.23,517.65 502.41,923.58 422.63,1570.24 -3.03,24.55 -5.26,48.82 -6.83,72.84 -54.74,-43.85 -115.85,-84.23 -183.67,-120.3 89.43,135.18 165.52,292.43 212.06,457.33 3.15,12.68 6.53,25.25 10.15,37.7 59.13,233.86 57.08,480.78 -51.46,700.51 78.17,-401.43 -88.55,-823.67 -444.79,-1058.88l30.58 32.05c368.89,386.62 394.78,983.9 66.96,1400.39 -68.67,39.6 -143.63,65.22 -220.59,76.22 -309.74,44.24 -604.47,-150.71 -683.83,-453.49 -85.93,455.36 249.9,796.29 689.09,754.32 80.07,121.42 139.55,255.28 176,396.11 -97.06,-131.44 -231.8,-232.62 -388.59,-288.54l68.79 60.85c122.73,108.57 213.16,247.37 263.3,401.15 -219.19,-197.5 -500.31,-315.76 -797.84,-332.61l-0.25 -0.01c-148.25,-331.78 -366.73,-642.4 -663.46,-926.42 212.62,70.08 400.44,201.69 539.11,379.01l-39.69 -66.15c-122.45,-204.08 -309.87,-359.92 -530.9,-443.48 111.31,-115.38 244.43,-215.27 386.89,-296.57 294.25,-167.89 359.8,-464.37 425.9,-763.12 59.86,-71.67 108.33,-154.73 141.66,-247.3l23.81 -66.14 -39.69 60.85c-50.94,84 -122.41,153.66 -207.7,202.41 -132.57,75.78 -278.39,124.32 -428.94,143.36l42.69 -22.89c508.12,-272.99 368.89,-694.2 283.05,-1124.52 -44.25,430.33 -109.22,770.51 -547.82,987.86 -280.25,138.88 -445.52,436.5 -415.27,747.81 65.17,-186.12 183.5,-308.1 331.23,-409.93 222.6,52.96 448.34,9.13 629.75,-106.79zm-6358.45 -2072.56l-28.72 37.39c-145.18,189.07 -345.98,327.87 -574.15,396.88l68.79 2.65c155.31,5.99 308.76,-23.54 449.18,-84.97 -270.89,513.58 -443.61,927.74 -363.99,1573.3 50.73,411.35 -107.19,922.67 -484.39,1126.89 166.95,-53.45 313.17,-132.52 433,-233.39 34.59,299.3 203.25,594.17 486.22,799.35 50.47,36.59 104.02,67.55 159.73,92.77l-34.85 80.3c-183.49,422.83 -200.5,899.36 -47.63,1334.19l79.38 -116.42c203.28,-298.14 498.18,-520.7 838.74,-634.86 -168.28,576.43 -148.97,1206.51 21.24,1865.18 129.62,-364.06 355.1,-572.1 662.08,-715.42 -21.77,702.96 286.45,1397.2 869.98,1850.68 562.47,437.13 990.23,1024.04 1234.15,1693.34 243.92,-669.3 671.68,-1256.21 1234.15,-1693.34 583.53,-453.48 891.75,-1147.72 869.98,-1850.68 306.98,143.32 532.46,351.36 662.08,715.42 170.21,-658.67 189.52,-1288.75 21.24,-1865.18 340.56,114.16 635.46,336.72 838.74,634.86l79.38 116.42c152.87,-434.83 135.86,-911.36 -47.63,-1334.19l-34.85 -80.3c55.71,-25.22 109.26,-56.18 159.73,-92.77 282.97,-205.18 451.63,-500.05 486.22,-799.35 119.83,100.87 266.05,179.94 433,233.39 -377.2,-204.22 -535.12,-715.54 -484.39,-1126.89 79.62,-645.56 -93.1,-1059.72 -363.99,-1573.3 140.42,61.43 293.87,90.96 449.18,84.97l68.79 -2.65c-228.17,-69.01 -428.97,-207.81 -574.15,-396.88l-28.72 -37.39c186.99,-592.64 267.15,-1210.34 241.65,-1823.66 -28.14,-677.11 -184.85,-1348.09 -468.43,-1973.43 -162.01,-357.14 -646.47,-423.48 -889.27,-100.34 -217.85,289.95 -438.59,578.19 -661.61,864.18 -197.49,253.24 -433.36,190.63 -704.53,138.44 -272.15,213.38 -547.41,329.06 -898.28,309.6l-388.29 -20.63 -388.29 20.63c-350.87,19.46 -626.13,-96.22 -898.28,-309.6 -271.17,52.19 -507.04,114.8 -704.53,-138.44 -223.02,-285.99 -443.76,-574.23 -661.61,-864.18 -242.8,-323.14 -727.26,-256.8 -889.27,100.34 -283.58,625.34 -440.29,1296.32 -468.43,1973.43 -25.5,613.32 54.66,1231.02 241.65,1823.66zm4970.69 969.37l-15.03 7.39c-77.91,38.33 -139.22,103.7 -172.47,183.91l5.29 -31.75c11.06,-66.39 40.27,-127.36 83.18,-176.87 -62.24,11.55 -126.93,17.42 -192.73,16.89 366.65,-201.87 705.72,-605.04 523.27,-1021.29 299.23,266.44 305.21,534.13 158.28,728.59 112.73,-49.09 199.71,-144.61 237.48,-263.03l-5.29 52.92c-12.37,123.75 -86.56,231.68 -195.25,288.16 149.4,-5.01 295.7,49.02 406.34,151.79 34.68,32.21 79.71,50.98 127,52.92l-47.63 15.88c-45.44,15.15 -92.51,24.92 -140.23,29.1l-47.62 66.15c-153.91,213.8 -436.84,290.05 -677.34,182.56 -46.36,67.75 -42.67,174.83 -10.58,264.59l-52.92 -68.8c-95.15,-123.7 -103.59,-293.45 -21.17,-425.98 11.51,-18.52 24.02,-36.24 37.42,-53.13zm-2030.07 6217.19l71.44 76.73c131.03,140.73 229.76,306.54 291.26,485.86 -150.03,-243.69 -351.56,-453.24 -591.86,-613.15 -229.99,-153.05 -424.8,-353.28 -571.5,-587.38 -269.07,-429.39 -313.93,-960.03 -125.4,-1425.99 -30.28,172.5 -32.28,349.56 -5.15,524.14l7.94 -113.77c10.5,-150.44 46.28,-298.03 105.83,-436.57l-10.58 87.32c-24.24,200.08 39.46,400.83 174.62,550.33l-47.62 -92.6c-71.91,-139.83 -77.2,-302.37 -18.68,-444.36 47.6,283.02 172.61,511.16 490.54,780 158.1,133.69 263.2,319.49 296.34,523.87l31.75 195.8c-83.78,-137.73 -202.43,-250.9 -343.96,-328.09 -182.72,-99.65 -330.47,-252.95 -423.34,-439.21l-79.15 -158.75c-42.36,336.42 114.5,666.82 401.95,846.67 375.2,234.75 648.09,599.52 768.77,1021.63 -104.07,-176.23 -259.05,-323.87 -423.2,-452.48zm1656.29 0l-71.44 76.73c-131.02,140.72 -229.75,306.52 -291.25,485.82 150.03,-243.67 351.55,-453.21 591.84,-613.11 229.99,-153.05 424.8,-353.28 571.5,-587.38 269.06,-429.37 313.92,-959.99 125.41,-1425.94 30.27,172.48 32.27,349.52 5.15,524.09l-7.94 -113.77c-10.5,-150.44 -46.28,-298.03 -105.83,-436.57l10.58 87.32c24.24,200.08 -39.46,400.83 -174.62,550.33l47.62 -92.6c71.91,-139.83 77.21,-302.39 18.68,-444.38 -47.6,283.03 -172.61,511.18 -490.55,780.02 -158.1,133.69 -263.2,319.49 -296.34,523.87l-31.75 195.8c83.78,-137.73 202.43,-250.9 343.96,-328.09 182.72,-99.65 330.47,-252.95 423.34,-439.21l79.15 -158.75c42.36,336.42 -114.5,666.82 -401.95,846.67 -375.21,234.75 -648.1,599.54 -768.77,1021.67 104.07,-176.24 259.05,-323.9 423.21,-452.52zm-828.15 -2086.77l135.27 31.75c202.69,47.58 410.8,42.79 606.26,-9.76l-0.01 0.02c-157.18,257.6 -444.67,402.77 -741.52,380.36 -296.85,22.41 -584.34,-122.76 -741.52,-380.36l-0.01 -0.02c195.46,52.55 403.57,57.34 606.26,9.76l135.27 -31.75zm1734.3 -1804.31c256.56,214.07 454.5,490.49 574.45,803.29l-39.88 -55.58c-161.42,-224.96 -364.84,-416.08 -598.67,-563.04 -23.07,98.95 -29.68,202.91 -16.22,311.02 0.57,5.38 1.11,10.75 1.61,16.13l57.58 79.8c188.57,261.32 335.01,550.58 434,857.25 -128.73,-195.66 -259.31,-369.7 -418.09,-517.79 42.54,135.5 94.63,267.93 155.94,396.29 94.22,197.25 157.39,402.55 191.1,609.88 149.62,51.27 277.97,123.11 392.02,210.28 -35.92,-415.14 -152.87,-819.76 -344.78,-1190.78l-79.38 -153.46c334.08,310.36 567.67,710.37 675.3,1148.71 -27.86,-857.5 -368.13,-1630.85 -920.19,-2070.92 -24.17,38.49 -45.86,78.16 -64.79,118.92zm-530.95 -3707.86c-15.89,310.13 -412.27,403.47 -588.61,790.86 -88.43,194.27 -123.4,412.77 -94.44,632.41 29,219.87 119.37,421.85 255.03,586.39 113.27,137.39 258.04,248.74 424.93,322.72 -62.44,331.83 -12.59,596.9 173.41,896.32 -48.33,-353.41 45.86,-713.01 110.88,-1058.51 -215.31,-72.06 -365,-134.57 -516.84,-318.73 -106.58,-129.26 -177.58,-287.86 -200.33,-460.41 -22.78,-172.78 4.59,-344.37 73.92,-496.67 183.08,-402.18 586.64,-405.71 611.07,-881.68 19.76,-385.2 -269.71,-583.27 -607.87,-673.2 191.75,157.5 372.19,400.4 358.85,660.5zm470.54 1217.43l30.61 31.75c73.97,76.72 84.15,194.74 24.43,282.99 -59.71,88.27 -173.05,122.71 -271.78,82.58 -98.72,-40.12 -155.91,-143.86 -137.12,-248.75 22.17,-30.23 46.05,-55.67 71.77,-76.55 -6.63,14.16 -10.33,29.95 -10.33,46.61 0,60.82 49.31,110.13 110.13,110.13 60.82,0 110.13,-49.31 110.13,-110.13 0,-54.09 -39.01,-99.07 -90.41,-108.37 49.06,-13.56 103.09,-16.66 162.57,-10.26zm-3408.19 2490.43c-256.56,214.07 -454.5,490.49 -574.45,803.29l39.88 -55.58c161.42,-224.96 364.84,-416.08 598.67,-563.04 23.07,98.95 29.68,202.91 16.22,311.02 -0.57,5.38 -1.11,10.75 -1.61,16.13l-57.58 79.8c-188.57,261.32 -335.01,550.58 -434,857.25 128.73,-195.66 259.31,-369.7 418.09,-517.79 -42.54,135.5 -94.63,267.93 -155.94,396.29 -94.22,197.25 -157.39,402.55 -191.1,609.88 -149.62,51.27 -277.97,123.11 -392.02,210.28 35.92,-415.14 152.87,-819.76 344.78,-1190.78l79.38 -153.46c-334.08,310.36 -567.67,710.37 -675.3,1148.71 27.86,-857.5 368.13,-1630.85 920.19,-2070.92 24.17,38.49 45.86,78.16 64.79,118.92zm530.95 -3707.86c15.89,310.13 412.27,403.47 588.61,790.86 88.43,194.27 123.4,412.77 94.44,632.41 -29,219.87 -119.37,421.85 -255.03,586.39 -113.27,137.39 -258.04,248.74 -424.93,322.72 62.44,331.83 12.59,596.9 -173.41,896.32 48.33,-353.41 -45.86,-713.01 -110.88,-1058.51 215.31,-72.06 365,-134.57 516.84,-318.73 106.58,-129.26 177.58,-287.86 200.33,-460.41 22.78,-172.78 -4.59,-344.37 -73.92,-496.67 -183.08,-402.18 -586.64,-405.71 -611.07,-881.68 -19.76,-385.2 269.71,-583.27 607.87,-673.2 -191.75,157.5 -372.19,400.4 -358.85,660.5zm-470.54 1217.43l-30.61 31.75c-73.97,76.72 -84.15,194.74 -24.43,282.99 59.71,88.27 173.05,122.71 271.78,82.58 98.72,-40.12 155.91,-143.86 137.12,-248.75 -22.17,-30.23 -46.05,-55.67 -71.77,-76.55 6.63,14.16 10.33,29.95 10.33,46.61 0,60.82 -49.31,110.13 -110.13,110.13 -60.82,0 -110.13,-49.31 -110.13,-110.13 0,-54.09 39.01,-99.07 90.41,-108.37 -49.06,-13.56 -103.09,-16.66 -162.57,-10.26zm1314.48 5918.61c129.07,-156.23 173.92,-365.56 120.2,-560.96 -53.73,-195.4 -199.29,-352.36 -390.09,-420.65 -243.28,-87.07 -453.88,-246.88 -603.24,-457.73 32.37,228.95 229.28,434.34 476.25,608.54 303.07,213.77 424.64,604.54 296.33,952.51l100.55 -121.71zm718.83 0c-129.07,-156.23 -173.92,-365.56 -120.2,-560.96 53.73,-195.4 199.29,-352.36 390.09,-420.65 243.28,-87.07 453.88,-246.88 603.24,-457.73 -32.37,228.95 -229.28,434.34 -476.25,608.54 -303.07,213.77 -424.64,604.54 -296.33,952.51l-100.55 -121.71zm-359.41 203.37c71.55,170.19 111.12,357.12 111.12,553.31 0,196.19 -39.57,383.12 -111.12,553.31 -71.55,-170.19 -111.13,-357.12 -111.13,-553.31 0,-196.19 39.58,-383.12 111.13,-553.31zm1715.38 -1006.68c-14,401.94 -161.19,714.77 -582.54,934.86 327.27,-291.01 506.89,-534.95 582.54,-934.86zm-3430.77 0c14,401.94 161.19,714.77 582.54,934.86 -327.27,-291.01 -506.89,-534.95 -582.54,-934.86z"/>
   <path class="fil6" d="M8761.12 9852.41c25.57,0 46.3,20.73 46.3,46.3 0,25.57 -20.73,46.3 -46.3,46.3 -25.57,0 -46.3,-20.73 -46.3,-46.3 0,-25.57 20.73,-46.3 46.3,-46.3zm3022.99 0c25.57,0 46.3,20.73 46.3,46.3 0,25.57 -20.73,46.3 -46.3,46.3 -25.57,0 -46.3,-20.73 -46.3,-46.3 0,-25.57 20.73,-46.3 46.3,-46.3z"/>
   <path class="fil7" d="M11317.48 7723.79l132.29 61.74c233.6,109.02 391.52,334.14 414.52,590.9l134.42 48.51c211.64,76.38 364.71,262.17 399.18,484.51 34.47,222.34 -55.16,445.77 -233.74,582.64l145.52 -22.04c258.56,-39.16 455.58,-252.09 474.59,-512.91 19.01,-260.82 -145.06,-500.06 -395.21,-576.3 -130.97,-39.92 -264.9,-69.41 -400.52,-88.19l0 -119.06c0,-162.16 -80.83,-313.64 -215.52,-403.93 -134.7,-90.28 -305.54,-107.49 -455.53,-45.87zm-2184.09 0l-132.29 61.74c-233.6,109.02 -391.52,334.14 -414.52,590.9l-134.42 48.51c-211.64,76.38 -364.71,262.17 -399.18,484.51 -34.47,222.34 55.16,445.77 233.74,582.64l-145.52 -22.04c-258.56,-39.16 -455.58,-252.09 -474.59,-512.91 -19.01,-260.82 145.06,-500.06 395.21,-576.3 130.97,-39.92 264.9,-69.41 400.52,-88.19l0 -119.06c0,-162.16 80.83,-313.64 215.52,-403.93 134.7,-90.28 305.54,-107.49 455.53,-45.87z"/>
  </g>
  <rect class="fil8" x="884.73" y="4365.69" width="18690.37" height="14017.78"/>
 </g>
</svg>
